<?xml version="1.0" standalone="no"?>
<!DOCTYPE svg PUBLIC "-//W3C//DTD SVG 20010904//EN"
 "http://www.w3.org/TR/2001/REC-SVG-20010904/DTD/svg10.dtd">
<svg version="1.0" xmlns="http://www.w3.org/2000/svg"
 width="512.000000pt" height="512.000000pt" viewBox="0 0 512.000000 512.000000"
 preserveAspectRatio="xMidYMid meet">
<metadata>
Created by potrace 1.11, written by Peter Selinger 2001-2013
</metadata>
<g transform="translate(0.000000,512.000000) scale(0.100000,-0.100000)"
fill="#000000" stroke="none">
<path d="M2330 4799 c-416 -42 -848 -220 -1175 -484 -105 -84 -270 -250 -351
-350 -703 -878 -647 -2146 130 -2962 107 -112 222 -209 244 -205 9 2 55 22
100 44 250 122 410 313 500 598 54 171 67 284 66 575 -1 271 -1 269 -79 905
-48 385 -44 586 12 713 29 65 83 119 138 137 195 64 588 -166 1285 -754 85
-72 407 -352 715 -621 663 -580 742 -648 748 -638 3 5 21 58 41 120 125 390
138 828 36 1234 -218 870 -952 1537 -1845 1674 -124 19 -438 27 -565 14z"/>
</g>
</svg>
